<?xml version="1.0" encoding="iso-8859-1"?>
<!-- Generator: Adobe Illustrator 21.0.0, SVG Export Plug-In . SVG Version: 6.00 Build 0)  -->
<svg version="1.1" id="Capa_1" xmlns="http://www.w3.org/2000/svg" xmlns:xlink="http://www.w3.org/1999/xlink" x="0px" y="0px"
	 viewBox="0 0 512 512" style="enable-background:new 0 0 512 512;" xml:space="preserve">
<g transform="translate(-1)">
	<g>
		<g>
			<path d="M478.401,244.625l-44.348-125.653c-2.628-7.45-4.864-15.317-7.031-22.921l-0.93-3.268
				c-6.02-18.271-19.585-33.085-37.257-40.687c-33.527-16.759-92.851-50.637-93.414-50.97c-1.298-0.746-2.77-1.134-4.267-1.126
				h-68.267c-1.497-0.008-2.969,0.381-4.267,1.126c-0.597,0.333-59.921,34.21-93.449,50.97
				c-17.675,7.602-31.241,22.42-37.257,40.695l-0.93,3.26c-2.167,7.603-4.403,15.471-7.031,22.921L35.581,244.625
				c-0.933,2.701-0.453,5.689,1.28,7.962c1.152,1.536,28.595,37.547,66.56,37.547c2.263,0,4.433-0.9,6.033-2.5l30.037-30.037
				c3.371,16.358,5.576,32.934,6.596,49.604c-1.609,16.322-4.502,32.491-8.653,48.358c-7.561,34.193-16.947,76.74-16.947,113.775
				c0,0.699,0.086,1.396,0.256,2.074c1.545,6.187,13.833,34.884,107.247,39.851c1.08,0.482,2.248,0.735,3.43,0.742
				c0.801-0.042,1.591-0.201,2.347-0.469c7.287,0.299,14.993,0.469,23.253,0.469s15.966-0.171,23.253-0.469
				c0.755,0.269,1.546,0.427,2.347,0.469c1.177-0.009,2.339-0.262,3.413-0.742c93.414-4.966,105.702-33.664,107.247-39.851
				c0.176-0.677,0.267-1.374,0.273-2.074c0-37.035-9.387-79.582-16.947-113.775c-4.151-15.867-7.044-32.037-8.653-48.358
				c1.021-16.67,3.225-33.247,6.596-49.604l30.037,30.037c1.6,1.6,3.77,2.5,6.033,2.5c37.965,0,65.408-36.011,66.56-37.547
				C478.893,250.304,479.351,247.316,478.401,244.625z M225.148,17.067h63.744c4.207,2.389,14.78,8.388,27.861,15.676v1.391H194.787
				C209.021,26.215,220.677,19.627,225.148,17.067z M414.034,272.93l-6.639-6.639c9.405-6.304,18.222-13.444,26.342-21.333
				c3.334-3.332,3.336-8.736,0.004-12.07c-3.332-3.334-8.736-3.336-12.07-0.004c-8.128,7.913-17.05,14.967-26.624,21.052
				l-16.614-16.614c3.413-17.067,6.332-30.362,6.4-30.72c0.926-4.559-1.969-9.02-6.51-10.029s-9.054,1.804-10.147,6.326
				c-0.725,3.226-17.289,78.071-17.289,104.303c1.508,17.58,4.537,34.997,9.054,52.053c9.062,35.531,14.604,71.867,16.546,108.484
				c-1.476,2.372-10.061,13.09-42.667,20.343V290.133c0-4.713-3.82-8.533-8.533-8.533s-8.533,3.82-8.533,8.533v201.079
				c-7.552,1.092-16.077,1.988-25.6,2.628V307.2c0-4.713-3.82-8.533-8.533-8.533s-8.533,3.82-8.533,8.533v187.477
				c-5.41,0.162-11.093,0.256-17.067,0.256s-11.657-0.094-17.067-0.256V307.2c0-4.713-3.821-8.533-8.533-8.533
				c-4.713,0-8.533,3.82-8.533,8.533v186.658c-9.54-0.64-18.039-1.536-25.6-2.62V290.133c0-4.713-3.82-8.533-8.533-8.533
				s-8.533,3.82-8.533,8.533v197.973c-32.862-7.279-41.216-18.082-42.667-20.412c1.943-36.603,7.485-72.925,16.546-108.442
				c4.517-17.057,7.546-34.473,9.054-52.053c0-26.231-16.563-101.077-17.271-104.252c-0.615-3.024-2.814-5.481-5.752-6.425
				s-6.157-0.228-8.418,1.872c-2.261,2.1-3.212,5.257-2.487,8.257c0.068,0.316,3.004,13.594,6.4,30.72l-16.614,16.614
				c-9.574-6.085-18.495-13.139-26.624-21.052c-3.334-3.332-8.738-3.33-12.07,0.004c-3.332,3.334-3.33,8.738,0.004,12.07
				c8.121,7.89,16.937,15.03,26.342,21.333l-6.639,6.639c-21.888-1.707-39.936-19.627-46.677-27.204l42.735-121.122
				c2.807-7.953,5.12-16.077,7.347-23.893l0.922-3.243c4.21-12.222,13.076-22.288,24.67-28.006v24.354
				c0,4.713,3.82,8.533,8.533,8.533s8.533-3.821,8.533-8.533v-33.28c5.632-2.944,11.58-6.118,17.604-9.387h7.996v25.6
				c0,4.713,3.82,8.533,8.533,8.533s8.533-3.82,8.533-8.533V51.2h25.6v25.6c0,4.713,3.82,8.533,8.533,8.533s8.533-3.82,8.533-8.533
				V51.2h42.667v25.6c0,4.713,3.82,8.533,8.533,8.533s8.533-3.82,8.533-8.533V51.2h25.6v25.6c0,4.713,3.82,8.533,8.533,8.533
				s8.533-3.82,8.533-8.533V51.2h16.529l9.071,4.864v37.803c0,4.713,3.82,8.533,8.533,8.533s8.533-3.821,8.533-8.533V64.981
				l4.719,2.389c13.359,5.501,23.727,16.455,28.484,30.097l0.93,3.226c2.227,7.859,4.54,15.983,7.347,23.936l42.726,121.131
				C453.953,253.338,435.905,271.207,414.034,272.93z"/>
			<path d="M219.751,104.322c-1.985-1.621-4.593-2.264-7.104-1.752l-42.667,8.533c-3.974,0.811-6.827,4.307-6.827,8.363v25.6
				c0,4.713,3.821,8.533,8.533,8.533V256c0,4.713,3.82,8.533,8.533,8.533h34.133c4.713,0,8.533-3.82,8.533-8.533V110.933
				C222.888,108.371,221.736,105.943,219.751,104.322z M205.82,247.467h-17.067v-102.4c0-4.713-3.82-8.533-8.533-8.533v-10.069
				l25.6-5.12V247.467z"/>
			<path d="M323.12,105.25c-1.619-1.813-3.935-2.85-6.366-2.85h-51.2c-2.431,0-4.747,1.037-6.366,2.85l-17.067,19.115
				c-1.396,1.564-2.168,3.587-2.167,5.683v106.837c0,2.096,0.771,4.119,2.167,5.683l17.067,19.115
				c1.619,1.813,3.935,2.85,6.366,2.85h51.2c2.431,0,4.747-1.037,6.366-2.85l17.067-19.115c1.396-1.564,2.168-3.587,2.167-5.683
				V130.048c0-2.096-0.771-4.119-2.167-5.683L323.12,105.25z M325.287,233.626l-12.356,13.841h-43.52l-12.39-13.841V133.308
				l12.356-13.841h43.52l12.39,13.841V233.626z"/>
			<path d="M291.154,145.067c-4.713,0-8.533,3.821-8.533,8.533v59.733c0,4.713,3.821,8.533,8.533,8.533
				c4.713,0,8.533-3.821,8.533-8.533V153.6C299.687,148.887,295.867,145.067,291.154,145.067z"/>
		</g>
	</g>
</g>
<g>
</g>
<g>
</g>
<g>
</g>
<g>
</g>
<g>
</g>
<g>
</g>
<g>
</g>
<g>
</g>
<g>
</g>
<g>
</g>
<g>
</g>
<g>
</g>
<g>
</g>
<g>
</g>
<g>
</g>
</svg>
